<svg width="16" height="14" viewBox="0 0 16 14" fill="none" xmlns="http://www.w3.org/2000/svg">
<path d="M7.25 10H8.75C9.1625 10 9.5 9.6625 9.5 9.25H14.7425V12.25C14.7425 13.075 14.0675 13.75 13.2425 13.75H2.75C1.925 13.75 1.25 13.075 1.25 12.25V9.25H6.5C6.5 9.6625 6.8375 10 7.25 10ZM2 3.25H5C5 1.5925 6.3425 0.25 8 0.25C9.6575 0.25 11 1.5925 11 3.25H14C14.825 3.25 15.5 3.925 15.5 4.75V7C15.5 7.8325 14.8325 8.5 14 8.5H9.5V7.75C9.5 7.3375 9.1625 7 8.75 7H7.25C6.8375 7 6.5 7.3375 6.5 7.75V8.5H2C1.175 8.5 0.5 7.825 0.5 7V4.75C0.5 3.925 1.175 3.25 2 3.25ZM9.5 3.25C9.5 2.425 8.825 1.75 8 1.75C7.175 1.75 6.5 2.425 6.5 3.25H9.5075H9.5Z" fill="#333333" fill-opacity="0.8"/>
</svg>
