<svg width="24" height="34" viewBox="0 0 24 34" fill="none" xmlns="http://www.w3.org/2000/svg">
<path fill-rule="evenodd" clip-rule="evenodd" d="M10.0361 18.1819L1.10655 1.23384C1.05525 1.13648 1.02346 1.02988 1.01299 0.920125C1.00251 0.810369 1.01357 0.699606 1.04551 0.59416C1.11004 0.381202 1.25575 0.20283 1.4506 0.0982841C1.64546 -0.00626173 1.87349 -0.0284179 2.08453 0.0366897C2.18903 0.0689277 2.28621 0.121619 2.37053 0.191756C2.45484 0.261892 2.52465 0.3481 2.57595 0.445458L11.5063 17.3936L12.7727 16.7135C13.1586 16.5064 13.5812 16.3781 14.0164 16.3359C14.4515 16.2937 14.8906 16.3383 15.3086 16.4674C15.7266 16.5964 16.1153 16.8073 16.4525 17.0879C16.7898 17.3686 17.0689 17.7135 17.274 18.103L17.8132 19.1265L23.5293 27.5678L16.2589 31.4677L13.7403 26.4444L12.256 27.2026L14.7895 32.2569L11.6727 33.9286L7.93266 24.426L7.39432 23.4034C7.18909 23.014 7.0619 22.5876 7.01999 22.1485C6.97808 21.7095 7.02229 21.2664 7.15008 20.8446C7.27788 20.4229 7.48676 20.0306 7.76479 19.6903C8.04283 19.3499 8.38458 19.0682 8.77052 18.8612L10.0369 18.1819H10.0361ZM13.5531 18.197L9.55098 20.3439C9.35801 20.4474 9.18714 20.5883 9.04812 20.7584C8.9091 20.9286 8.80466 21.1247 8.74076 21.3356C8.67686 21.5465 8.65476 21.7681 8.67571 21.9876C8.69667 22.2071 8.76027 22.4203 8.86288 22.615L9.40122 23.6376L16.343 19.9132L15.8038 18.8914C15.7012 18.6967 15.5616 18.5242 15.393 18.384C15.2244 18.2437 15.03 18.1383 14.821 18.0738C14.612 18.0093 14.3924 17.987 14.1749 18.0082C13.9574 18.0293 13.7461 18.0935 13.5531 18.197Z" fill="#B56A29" fill-opacity="0.7"/>
<path d="M6.46333 26.3708C6.32218 26.1997 6.11948 26.0922 5.89979 26.0719C5.6801 26.0516 5.46142 26.1201 5.29181 26.2625H5.29347L5.28432 26.2692L5.2319 26.3095C5.15745 26.3659 5.08142 26.4202 5.00392 26.4724C4.79757 26.6109 4.48972 26.7998 4.09366 26.9896C3.07565 27.4833 1.96152 27.7423 0.832045 27.7477C0.611373 27.7477 0.399739 27.8362 0.243701 27.9936C0.0876618 28.1511 0 28.3646 0 28.5873C0 28.81 0.0876618 29.0235 0.243701 29.181C0.399739 29.3384 0.611373 29.4269 0.832045 29.4269C2.20908 29.4215 3.56767 29.1069 4.80922 28.5059C5.1965 28.3208 5.57021 28.1081 5.92749 27.8695C6.06126 27.7792 6.1917 27.6839 6.31855 27.584L6.34351 27.5647L6.35184 27.558L6.35433 27.5546H6.356L6.35683 27.5529C6.52625 27.4104 6.63264 27.2058 6.65261 26.9841C6.67258 26.7624 6.6045 26.5418 6.46333 26.3708ZM8.18067 30.6401C8.24133 30.7318 8.28348 30.8347 8.30473 30.9429C8.32597 31.0511 8.32589 31.1624 8.30449 31.2706C8.28308 31.3787 8.24078 31.4815 8.17999 31.5732C8.1192 31.6648 8.04111 31.7435 7.95019 31.8046L7.94853 31.8063L7.9452 31.808L7.93688 31.813L7.91109 31.8298C7.76703 31.9223 7.62083 32.0113 7.4726 32.0968C7.18055 32.2656 6.76536 32.4898 6.26613 32.7131C5.28432 33.1539 3.91145 33.6249 2.49614 33.6249C2.27546 33.6249 2.06383 33.5364 1.90779 33.379C1.75175 33.2215 1.66409 33.008 1.66409 32.7853C1.66409 32.5626 1.75175 32.3491 1.90779 32.1916C2.06383 32.0341 2.27546 31.9457 2.49614 31.9457C3.57613 31.9457 4.70106 31.5771 5.59051 31.1783C6.0539 30.9697 6.50358 30.7313 6.93676 30.4646C6.96103 30.4502 6.98489 30.4351 7.00832 30.4193L7.02496 30.4092L7.02662 30.4076C7.11753 30.3463 7.21949 30.3038 7.32669 30.2824C7.43389 30.2609 7.54422 30.261 7.65139 30.2826C7.75856 30.3042 7.86046 30.3469 7.95127 30.4082C8.04209 30.4696 8.12004 30.5484 8.18067 30.6401Z" fill="#B56A29" fill-opacity="0.7"/>
</svg>
