<svg width="18" height="14" viewBox="0 0 18 14" fill="none" xmlns="http://www.w3.org/2000/svg">
<path d="M0 9.5C0 10.0304 0.210714 10.5391 0.585787 10.9142C0.960859 11.2893 1.46957 11.5 2 11.5H16C16.5304 11.5 17.0391 11.2893 17.4142 10.9142C17.7893 10.5391 18 10.0304 18 9.5V8C18 7.46957 17.7893 6.96086 17.4142 6.58579C17.0391 6.21071 16.5304 6 16 6H2C1.46957 6 0.960859 6.21071 0.585787 6.58579C0.210714 6.96086 0 7.46957 0 8V9.5Z" fill="#333333" fill-opacity="0.8"/>
<path d="M8.5 2.5L8.9895 2H14.427C16 2 16.5 3 16.5 3L18 5.9795V8.5H8.5V2.5Z" fill="#333333" fill-opacity="0.8"/>
<path d="M13.5 6H17L16 4C16 4 15.5 3 14.5 3H13.5V6Z" fill="#333333" fill-opacity="0.8"/>
<path d="M13.5 13.5C12.3954 13.5 11.5 12.6046 11.5 11.5C11.5 10.3954 12.3954 9.5 13.5 9.5C14.6046 9.5 15.5 10.3954 15.5 11.5C15.5 12.6046 14.6046 13.5 13.5 13.5Z" fill="#333333" fill-opacity="0.8"/>
<path d="M13.5 12.5C12.9477 12.5 12.5 12.0523 12.5 11.5C12.5 10.9477 12.9477 10.5 13.5 10.5C14.0523 10.5 14.5 10.9477 14.5 11.5C14.5 12.0523 14.0523 12.5 13.5 12.5Z" fill="#333333" fill-opacity="0.5"/>
<path d="M4.5 13.5C3.39543 13.5 2.5 12.6046 2.5 11.5C2.5 10.3954 3.39543 9.5 4.5 9.5C5.60457 9.5 6.5 10.3954 6.5 11.5C6.5 12.6046 5.60457 13.5 4.5 13.5Z" fill="#333333" fill-opacity="0.8"/>
<path d="M4.5 12.5C3.94772 12.5 3.5 12.0523 3.5 11.5C3.5 10.9477 3.94772 10.5 4.5 10.5C5.05228 10.5 5.5 10.9477 5.5 11.5C5.5 12.0523 5.05228 12.5 4.5 12.5Z" fill="#333333" fill-opacity="0.5"/>
<path d="M2 0H9.5C10.0304 0 10.5391 0.210714 10.9142 0.585786C11.2893 0.960859 11.5 1.46957 11.5 2V8.5H-9.53674e-07V2C-9.53674e-07 1.46957 0.210712 0.960859 0.585786 0.585786C0.960858 0.210714 1.46957 0 2 0Z" fill="#333333" fill-opacity="0.6"/>
</svg>
