<svg width="32" height="28" viewBox="0 0 32 28" fill="none" xmlns="http://www.w3.org/2000/svg">
<path d="M7.05532 16.8762V12.2631L4.34174 13.8393L0 5.84325L9.55182 0H11.3971C11.783 1.23016 12.2413 2.30655 12.7719 3.22917C13.3026 4.15179 14.2915 4.6131 15.7388 4.6131C17.186 4.6131 18.175 4.15179 18.7056 3.22917C19.2363 2.30655 19.6946 1.23016 20.0805 0H21.9258L31.4414 5.8817L27.1358 13.8393L24.4223 12.2631V19.6441L22.1429 21.7584C21.974 21.9122 21.781 22.0342 21.564 22.1244C21.3469 22.2136 21.1298 22.2582 20.9127 22.2582C20.768 22.2582 20.5991 22.2069 20.4062 22.1044C20.2132 22.0019 20.0202 21.8738 19.8273 21.72L15.9921 18.2217C15.2202 17.5041 14.3518 16.9788 13.387 16.6456C12.4222 16.3124 11.4453 16.1458 10.4563 16.1458C9.87745 16.1458 9.30434 16.2038 8.73702 16.3196C8.17066 16.4344 7.6101 16.62 7.05532 16.8762ZM5.10154 25.1798L3.22012 22.8348L6.36788 19.9901C6.92266 19.4775 7.55607 19.0869 8.26811 18.8184C8.97919 18.5487 9.72066 18.4139 10.4925 18.4139C11.2644 18.4139 12.0001 18.5487 12.6996 18.8184C13.3991 19.0869 14.0262 19.4775 14.581 19.9901L18.778 23.7959C19.0675 24.0522 19.4109 24.251 19.8084 24.3925C20.2069 24.533 20.6112 24.6032 21.0212 24.6032C21.4554 24.6032 21.8597 24.5391 22.234 24.411C22.6074 24.2828 22.9388 24.0778 23.2283 23.7959L26.376 20.9127L28.2575 23.2961L25.1097 26.1409C24.5549 26.6534 23.9278 27.0379 23.2283 27.2941C22.5288 27.5504 21.7931 27.6786 21.0212 27.6786C20.2494 27.6786 19.5079 27.5504 18.7968 27.2941C18.0848 27.0379 17.4514 26.6534 16.8966 26.1409L12.6996 22.3351C12.4101 22.0788 12.0787 21.8799 11.7053 21.7384C11.331 21.598 10.9267 21.5278 10.4925 21.5278C10.0825 21.5278 9.67821 21.598 9.27974 21.7384C8.88223 21.8799 8.53875 22.0788 8.2493 22.3351L5.10154 25.1798Z" fill="#6EE3A6" fill-opacity="0.79"/>
</svg>
