<svg width="12" height="16" viewBox="0 0 12 16" fill="none" xmlns="http://www.w3.org/2000/svg">
<path d="M9.75 5.75V4.25C9.75 2.15 8.1 0.5 6 0.5C3.9 0.5 2.25 2.15 2.25 4.25V5.75C0.975 5.75 0 6.725 0 8V13.25C0 14.525 0.975 15.5 2.25 15.5H9.75C11.025 15.5 12 14.525 12 13.25V8C12 6.725 11.025 5.75 9.75 5.75ZM3.75 4.25C3.75 2.975 4.725 2 6 2C7.275 2 8.25 2.975 8.25 4.25V5.75H3.75V4.25ZM6.825 10.625L6.75 10.7V11.75C6.75 12.2 6.45 12.5 6 12.5C5.55 12.5 5.25 12.2 5.25 11.75V10.7C4.8 10.25 4.725 9.575 5.175 9.125C5.625 8.675 6.3 8.6 6.75 9.05C7.2 9.425 7.275 10.175 6.825 10.625Z" fill="#333333" fill-opacity="0.5"/>
</svg>
