<svg width="18" height="14" viewBox="0 0 18 14" fill="none" xmlns="http://www.w3.org/2000/svg">
<path d="M18 2.5C18 1.90326 17.7629 1.33097 17.341 0.90901C16.919 0.487053 16.3467 0.25 15.75 0.25H2.25C1.65326 0.25 1.08097 0.487053 0.65901 0.90901C0.237053 1.33097 0 1.90326 0 2.5V8.125H18V2.5ZM5.0625 3.625C5.21168 3.625 5.35476 3.68426 5.46025 3.78975C5.56574 3.89524 5.625 4.03832 5.625 4.1875V5.3125C5.625 5.46168 5.56574 5.60476 5.46025 5.71025C5.35476 5.81574 5.21168 5.875 5.0625 5.875H2.8125C2.66332 5.875 2.52024 5.81574 2.41475 5.71025C2.30926 5.60476 2.25 5.46168 2.25 5.3125V4.1875C2.25 4.03832 2.30926 3.89524 2.41475 3.78975C2.52024 3.68426 2.66332 3.625 2.8125 3.625H5.0625ZM18 10.375V11.5C18 12.0967 17.7629 12.669 17.341 13.091C16.919 13.5129 16.3467 13.75 15.75 13.75H2.25C1.65326 13.75 1.08097 13.5129 0.65901 13.091C0.237053 12.669 0 12.0967 0 11.5V10.375H18Z" fill="#333333" fill-opacity="0.5"/>
</svg>
