<svg width="24" height="24" viewBox="0 0 24 24" fill="none" xmlns="http://www.w3.org/2000/svg">
<rect width="24" height="24" rx="12" fill="#03A74E" fill-opacity="0.2"/>
<path d="M7.99935 18.6663C7.63268 18.6663 7.3189 18.5359 7.05802 18.275C6.79668 18.0137 6.66602 17.6997 6.66602 17.333V6.66634C6.66602 6.29967 6.79668 5.98567 7.05802 5.72434C7.3189 5.46345 7.63268 5.33301 7.99935 5.33301H12.7827C12.9605 5.33301 13.13 5.36634 13.2913 5.43301C13.4522 5.49967 13.5938 5.59412 13.716 5.71634L16.9493 8.94967C17.0716 9.0719 17.166 9.21345 17.2327 9.37434C17.2993 9.53567 17.3327 9.70523 17.3327 9.88301V11.3997L11.9993 16.7163V18.6663H7.99935ZM13.666 18.6663C13.5771 18.6663 13.4993 18.633 13.4327 18.5663C13.366 18.4997 13.3327 18.4219 13.3327 18.333V17.533C13.3327 17.4441 13.3522 17.3552 13.3913 17.2663C13.43 17.1775 13.4771 17.1052 13.5327 17.0497L16.766 13.7997L18.1993 15.1997L14.9493 18.4663C14.8938 18.533 14.8216 18.583 14.7327 18.6163C14.6438 18.6497 14.5549 18.6663 14.466 18.6663H13.666ZM18.6827 14.733L17.266 13.3163L17.7327 12.8497C17.866 12.7163 18.0271 12.6497 18.216 12.6497C18.4049 12.6497 18.5605 12.7163 18.6827 12.8497L19.1493 13.333C19.2716 13.4663 19.3327 13.6246 19.3327 13.8077C19.3327 13.9912 19.2716 14.1441 19.1493 14.2663L18.6827 14.733ZM13.3327 9.99967H15.9993L12.666 6.66634V9.33301C12.666 9.5219 12.73 9.68012 12.858 9.80767C12.9856 9.93567 13.1438 9.99967 13.3327 9.99967Z" fill="#03A74E"/>
</svg>
