<svg width="18" height="20" viewBox="0 0 18 20" fill="none" xmlns="http://www.w3.org/2000/svg">
<path d="M9.60002 11.1999V19.5999H13.2C13.9617 19.6 14.6949 19.3104 15.2509 18.7899C15.8069 18.2693 16.1441 17.5567 16.194 16.7967L16.2 16.5999V11.1999H9.60002ZM1.80002 11.1999V16.5999C1.79991 17.3616 2.0895 18.0948 2.61007 18.6508C3.13064 19.2068 3.8432 19.5439 4.60322 19.5939L4.80002 19.5999H8.40002V11.1999H1.80002ZM6.60002 0.399907C6.04268 0.399739 5.49632 0.554833 5.02219 0.847796C4.54805 1.14076 4.16491 1.56001 3.91571 2.05853C3.66651 2.55706 3.56111 3.11515 3.61133 3.67022C3.66154 4.22529 3.8654 4.7554 4.20002 5.20111L1.80002 5.19991C1.48176 5.19991 1.17654 5.32634 0.951494 5.55138C0.72645 5.77642 0.600023 6.08165 0.600023 6.39991V8.79991C0.600023 9.11817 0.72645 9.42339 0.951494 9.64844C1.17654 9.87348 1.48176 9.99991 1.80002 9.99991H8.40002V5.19991H9.60002V9.99991H16.2C16.5183 9.99991 16.8235 9.87348 17.0486 9.64844C17.2736 9.42339 17.4 9.11817 17.4 8.79991V6.39991C17.4 6.08165 17.2736 5.77642 17.0486 5.55138C16.8235 5.32634 16.5183 5.19991 16.2 5.19991L13.8 5.20111C14.0364 4.88593 14.2084 4.52729 14.3062 4.14565C14.4039 3.76401 14.4256 3.36685 14.3699 2.97684C14.3142 2.58684 14.1822 2.21162 13.9814 1.87263C13.7807 1.53363 13.5152 1.23749 13.2 1.00111C12.8849 0.764727 12.5262 0.59274 12.1446 0.494966C11.7629 0.397191 11.3658 0.375543 10.9758 0.431258C10.5858 0.486973 10.2105 0.61896 9.87154 0.819683C9.53255 1.02041 9.2364 1.28593 9.00002 1.60111C8.72136 1.2276 8.3592 0.924458 7.94248 0.715888C7.52575 0.507319 7.06603 0.39911 6.60002 0.399907ZM6.60002 1.59991C7.07741 1.59991 7.53525 1.78955 7.87282 2.12711C8.21038 2.46468 8.40002 2.92252 8.40002 3.39991V5.19991H6.60002C6.12263 5.19991 5.6648 5.01026 5.32723 4.6727C4.98967 4.33513 4.80002 3.8773 4.80002 3.39991C4.80002 2.92252 4.98967 2.46468 5.32723 2.12711C5.6648 1.78955 6.12263 1.59991 6.60002 1.59991ZM11.4 1.59991C11.8623 1.60014 12.3067 1.7782 12.6413 2.0972C12.9758 2.4162 13.1748 2.85168 13.1971 3.3134C13.2193 3.77513 13.063 4.22771 12.7606 4.57735C12.4582 4.92699 12.0329 5.1469 11.5728 5.19151L11.4 5.19991H9.60002V3.39991L9.60842 3.22711C9.65138 2.78171 9.85869 2.36829 10.1899 2.06745C10.5212 1.76661 10.9526 1.59993 11.4 1.59991Z" fill="#181B19" fill-opacity="0.7"/>
</svg>
