<svg width="22" height="23" viewBox="0 0 22 23" fill="none" xmlns="http://www.w3.org/2000/svg">
<path d="M21 20.0006V12.1746C21.0001 11.6302 20.889 11.0914 20.6735 10.5914C20.458 10.0913 20.1428 9.64056 19.747 9.26664L12.374 2.29864C12.0027 1.94757 11.511 1.75195 11 1.75195C10.489 1.75195 9.99734 1.94757 9.626 2.29864L2.253 9.26664C1.85722 9.64056 1.54195 10.0913 1.3265 10.5914C1.11104 11.0914 0.999942 11.6302 1 12.1746V20.0006C1 20.5311 1.21071 21.0398 1.58579 21.4149C1.96086 21.7899 2.46957 22.0006 3 22.0006H19C19.5304 22.0006 20.0391 21.7899 20.4142 21.4149C20.7893 21.0398 21 20.5311 21 20.0006Z" stroke="#03A74E" stroke-width="2" stroke-linecap="round" stroke-linejoin="round"/>
</svg>
