<svg width="38" height="32" viewBox="0 0 38 32" fill="none" xmlns="http://www.w3.org/2000/svg">
<path d="M32.2741 0.82959H5.72593C4.21714 0.82959 2.77015 1.42895 1.70328 2.49583C0.636404 3.5627 0.0370407 5.00969 0.0370407 6.51848V25.4814C0.0370407 26.9902 0.636404 28.4372 1.70328 29.5041C2.77015 30.571 4.21714 31.1703 5.72593 31.1703H32.2741C33.7829 31.1703 35.2299 30.571 36.2967 29.5041C37.3636 28.4372 37.963 26.9902 37.963 25.4814V6.51848C37.963 5.00969 37.3636 3.5627 36.2967 2.49583C35.2299 1.42895 33.7829 0.82959 32.2741 0.82959ZM32.2741 4.62218L19.9482 13.0986C19.6599 13.2651 19.3329 13.3527 19 13.3527C18.6671 13.3527 18.3401 13.2651 18.0519 13.0986L5.72593 4.62218H32.2741Z" fill="#03A74E"/>
</svg>
