<svg width="24" height="24" viewBox="0 0 24 24" fill="none" xmlns="http://www.w3.org/2000/svg">
<path d="M2.32668 18.5536C2.96955 17.9805 3.53237 17.3235 4.00001 16.6003C4.51052 15.602 4.81651 14.5117 4.90001 13.3936V10.1003C4.8956 8.344 5.53266 6.64658 6.69151 5.32691C7.85037 4.00724 9.45124 3.15617 11.1933 2.93359V2.07359C11.1933 1.83755 11.2871 1.61118 11.454 1.44427C11.6209 1.27736 11.8473 1.18359 12.0833 1.18359C12.3194 1.18359 12.5458 1.27736 12.7127 1.44427C12.8796 1.61118 12.9733 1.83755 12.9733 2.07359V2.94693C14.6998 3.18555 16.2814 4.04176 17.425 5.357C18.5686 6.67223 19.1969 8.35736 19.1933 10.1003V13.3936C19.2768 14.5117 19.5828 15.602 20.0933 16.6003C20.5528 17.3218 21.1065 17.9788 21.74 18.5536C21.8111 18.6161 21.8681 18.693 21.9072 18.7792C21.9463 18.8654 21.9666 18.9589 21.9667 19.0536V19.9603C21.9667 20.1371 21.8964 20.3066 21.7714 20.4317C21.6464 20.5567 21.4768 20.6269 21.3 20.6269H2.76667C2.58986 20.6269 2.42029 20.5567 2.29527 20.4317C2.17025 20.3066 2.10001 20.1371 2.10001 19.9603V19.0536C2.10013 18.9589 2.1204 18.8654 2.15948 18.7792C2.19857 18.693 2.25556 18.6161 2.32668 18.5536ZM20.58 19.2936C19.9597 18.6944 19.4136 18.0229 18.9533 17.2936C18.3103 16.0879 17.9351 14.7576 17.8533 13.3936V10.1003C17.8798 9.31895 17.7487 8.54031 17.468 7.81071C17.1872 7.0811 16.7625 6.41545 16.2192 5.85339C15.6758 5.29134 15.0249 4.84437 14.3052 4.53911C13.5855 4.23385 12.8118 4.07653 12.03 4.07653C11.2483 4.07653 10.4745 4.23385 9.7548 4.53911C9.0351 4.84437 8.3842 5.29134 7.84084 5.85339C7.29748 6.41545 6.87279 7.0811 6.59204 7.81071C6.31129 8.54031 6.18023 9.31895 6.20667 10.1003V13.3936C6.12496 14.7576 5.74975 16.0879 5.10667 17.2936C4.64641 18.0229 4.10028 18.6944 3.48001 19.2936H20.58Z" fill="#333333" fill-opacity="0.5"/>
<path d="M12 22.853C11.5801 22.8433 11.1771 22.6855 10.8623 22.4073C10.5475 22.1291 10.3413 21.7486 10.28 21.333H13.7867C13.7237 21.7599 13.5078 22.1493 13.1791 22.4289C12.8505 22.7085 12.4315 22.8592 12 22.853Z" fill="#333333" fill-opacity="0.5"/>
</svg>
