<svg width="24" height="18" viewBox="0 0 24 18" fill="none" xmlns="http://www.w3.org/2000/svg">
<path d="M24 3C24 2.20435 23.6839 1.44129 23.1213 0.87868C22.5587 0.31607 21.7956 0 21 0H3C2.20435 0 1.44129 0.31607 0.878681 0.87868C0.316071 1.44129 0 2.20435 0 3V15C0 15.7956 0.316071 16.5587 0.878681 17.1213C1.44129 17.6839 2.20435 18 3 18H21C21.7956 18 22.5587 17.6839 23.1213 17.1213C23.6839 16.5587 24 15.7956 24 15V3ZM20.25 4.5C20.4489 4.5 20.6397 4.57902 20.7803 4.71967C20.921 4.86032 21 5.05109 21 5.25V6.75C21 6.94891 20.921 7.13968 20.7803 7.28033C20.6397 7.42098 20.4489 7.5 20.25 7.5H17.25C17.0511 7.5 16.8603 7.42098 16.7197 7.28033C16.579 7.13968 16.5 6.94891 16.5 6.75V5.25C16.5 5.05109 16.579 4.86032 16.7197 4.71967C16.8603 4.57902 17.0511 4.5 17.25 4.5H20.25ZM20.25 9C20.4489 9 20.6397 9.07902 20.7803 9.21967C20.921 9.36032 21 9.55109 21 9.75C21 9.94891 20.921 10.1397 20.7803 10.2803C20.6397 10.421 20.4489 10.5 20.25 10.5H12.75C12.5511 10.5 12.3603 10.421 12.2197 10.2803C12.079 10.1397 12 9.94891 12 9.75C12 9.55109 12.079 9.36032 12.2197 9.21967C12.3603 9.07902 12.5511 9 12.75 9H20.25ZM20.25 12C20.4489 12 20.6397 12.079 20.7803 12.2197C20.921 12.3603 21 12.5511 21 12.75C21 12.9489 20.921 13.1397 20.7803 13.2803C20.6397 13.421 20.4489 13.5 20.25 13.5H18.75C18.5511 13.5 18.3603 13.421 18.2197 13.2803C18.079 13.1397 18 12.9489 18 12.75C18 12.5511 18.079 12.3603 18.2197 12.2197C18.3603 12.079 18.5511 12 18.75 12H20.25ZM15.75 12C15.9489 12 16.1397 12.079 16.2803 12.2197C16.421 12.3603 16.5 12.5511 16.5 12.75C16.5 12.9489 16.421 13.1397 16.2803 13.2803C16.1397 13.421 15.9489 13.5 15.75 13.5H14.25C14.0511 13.5 13.8603 13.421 13.7197 13.2803C13.579 13.1397 13.5 12.9489 13.5 12.75C13.5 12.5511 13.579 12.3603 13.7197 12.2197C13.8603 12.079 14.0511 12 14.25 12H15.75ZM11.25 12C11.4489 12 11.6397 12.079 11.7803 12.2197C11.921 12.3603 12 12.5511 12 12.75C12 12.9489 11.921 13.1397 11.7803 13.2803C11.6397 13.421 11.4489 13.5 11.25 13.5H9.75C9.55109 13.5 9.36032 13.421 9.21967 13.2803C9.07902 13.1397 9 12.9489 9 12.75C9 12.5511 9.07902 12.3603 9.21967 12.2197C9.36032 12.079 9.55109 12 9.75 12H11.25ZM6.75 12C6.94891 12 7.13968 12.079 7.28033 12.2197C7.42098 12.3603 7.5 12.5511 7.5 12.75C7.5 12.9489 7.42098 13.1397 7.28033 13.2803C7.13968 13.421 6.94891 13.5 6.75 13.5H5.25C5.05109 13.5 4.86032 13.421 4.71967 13.2803C4.57902 13.1397 4.5 12.9489 4.5 12.75C4.5 12.5511 4.57902 12.3603 4.71967 12.2197C4.86032 12.079 5.05109 12 5.25 12H6.75Z" fill="#181B19" fill-opacity="0.7"/>
</svg>
