<svg width="15" height="18" viewBox="0 0 15 18" fill="none" xmlns="http://www.w3.org/2000/svg">
<path d="M7.5 9C5.13281 9 3.21429 6.98555 3.21429 4.5C3.21429 2.01445 5.13281 0 7.5 0C9.86719 0 11.7857 2.01445 11.7857 4.5C11.7857 6.98555 9.86719 9 7.5 9ZM4.5 10.125H5.05915C5.80246 10.4836 6.62946 10.6875 7.5 10.6875C8.37054 10.6875 9.1942 10.4836 9.94085 10.125H10.5C12.9844 10.125 15 12.2414 15 14.85V16.3125C15 17.2441 14.2801 18 13.3929 18H1.60714C0.719867 18 0 17.2441 0 16.3125V14.85C0 12.2414 2.01562 10.125 4.5 10.125Z" fill="#333333" fill-opacity="0.5"/>
</svg>
