<svg width="64" height="64" viewBox="0 0 64 64" fill="none" xmlns="http://www.w3.org/2000/svg">
<circle cx="32" cy="32" r="31.5" stroke="#03A74E"/>
<g clip-path="url(#clip0_94_2410)">
<path d="M30.5019 49.0667L49.0667 30.502V34.2945C49.0667 35.2996 48.6684 36.2667 47.9478 36.9683L33.1757 51.7405C31.6966 53.2196 29.2883 53.2196 27.8092 51.7405L16.0332 39.9645C14.5541 38.4854 14.5541 36.0771 16.0332 34.598L30.5019 49.0667Z" fill="#03A74E"/>
<path d="M33.1757 42.2589C31.6966 43.738 29.2883 43.738 27.8092 42.2589L16.0332 30.4829C14.5541 29.0038 14.5541 26.5955 16.0332 25.1164L30.8053 10.3442C31.5256 9.64128 32.4916 9.24675 33.4981 9.24438H45.2741C47.36 9.24438 49.0667 10.9511 49.0667 13.037V24.813C49.0667 25.818 48.6684 26.7851 47.9478 27.4868L33.1757 42.2589ZM41.0074 14.9333C40.3787 14.9333 39.7758 15.183 39.3313 15.6275C38.8868 16.0721 38.637 16.675 38.637 17.3036C38.637 17.9323 38.8868 18.5352 39.3313 18.9797C39.7758 19.4243 40.3787 19.674 41.0074 19.674C41.6361 19.674 42.239 19.4243 42.6835 18.9797C43.128 18.5352 43.3778 17.9323 43.3778 17.3036C43.3778 16.675 43.128 16.0721 42.6835 15.6275C42.239 15.183 41.6361 14.9333 41.0074 14.9333Z" fill="#03A74E"/>
</g>
<defs>
<clipPath id="clip0_94_2410">
<rect width="45.5111" height="45.5111" fill="white" transform="translate(9.24438 9.24438)"/>
</clipPath>
</defs>
</svg>
