<svg width="232" height="145" viewBox="0 0 232 145" fill="none" xmlns="http://www.w3.org/2000/svg">
<path d="M11.5245 79.4635C11.6741 79.0029 12.3259 79.0029 12.4755 79.4635L14.5819 85.9463C14.6488 86.1523 14.8408 86.2918 15.0574 86.2918H21.8738C22.3582 86.2918 22.5596 86.9116 22.1677 87.1963L16.6531 91.2029C16.4779 91.3302 16.4046 91.5559 16.4715 91.7619L18.5779 98.2447C18.7276 98.7053 18.2003 99.0884 17.8085 98.8037L12.2939 94.7971C12.1186 94.6698 11.8814 94.6698 11.7061 94.7971L6.19153 98.8037C5.79967 99.0884 5.27243 98.7053 5.42211 98.2447L7.52849 91.7619C7.59543 91.5559 7.5221 91.3302 7.34685 91.2029L1.83227 87.1963C1.44041 86.9116 1.6418 86.2918 2.12616 86.2918H8.94256C9.15917 86.2918 9.35115 86.1523 9.41809 85.9463L11.5245 79.4635Z" fill="#F7A54B"/>
<path d="M216.524 5.46353C216.674 5.00287 217.326 5.00287 217.476 5.46353L219.582 11.9463C219.649 12.1523 219.841 12.2918 220.057 12.2918H226.874C227.358 12.2918 227.56 12.9116 227.168 13.1963L221.653 17.2029C221.478 17.3302 221.405 17.5559 221.472 17.7619L223.578 24.2447C223.728 24.7053 223.2 25.0884 222.808 24.8037L217.294 20.7971C217.119 20.6698 216.881 20.6698 216.706 20.7971L211.192 24.8037C210.8 25.0884 210.272 24.7053 210.422 24.2447L212.528 17.7619C212.595 17.5559 212.522 17.3302 212.347 17.2029L206.832 13.1963C206.44 12.9116 206.642 12.2918 207.126 12.2918H213.943C214.159 12.2918 214.351 12.1523 214.418 11.9463L216.524 5.46353Z" fill="#F7A54B"/>
<circle cx="205.5" cy="63.5" r="3.5" fill="#D9D9D9"/>
<path d="M220 123V127" stroke="#03A74E" stroke-width="2" stroke-linecap="round" stroke-linejoin="round"/>
<path d="M220 139V143" stroke="#03A74E" stroke-width="2" stroke-linecap="round" stroke-linejoin="round"/>
<path d="M212.93 125.93L215.76 128.76" stroke="#03A74E" stroke-width="2" stroke-linecap="round" stroke-linejoin="round"/>
<path d="M224.24 137.24L227.07 140.07" stroke="#03A74E" stroke-width="2" stroke-linecap="round" stroke-linejoin="round"/>
<path d="M210 133H214" stroke="#03A74E" stroke-width="2" stroke-linecap="round" stroke-linejoin="round"/>
<path d="M226 133H230" stroke="#03A74E" stroke-width="2" stroke-linecap="round" stroke-linejoin="round"/>
<path d="M212.93 140.07L215.76 137.24" stroke="#03A74E" stroke-width="2" stroke-linecap="round" stroke-linejoin="round"/>
<path d="M224.24 128.76L227.07 125.93" stroke="#03A74E" stroke-width="2" stroke-linecap="round" stroke-linejoin="round"/>
<path d="M28 10V14" stroke="#03A74E" stroke-width="2" stroke-linecap="round" stroke-linejoin="round"/>
<path d="M28 26V30" stroke="#03A74E" stroke-width="2" stroke-linecap="round" stroke-linejoin="round"/>
<path d="M20.9297 12.9297L23.7597 15.7597" stroke="#03A74E" stroke-width="2" stroke-linecap="round" stroke-linejoin="round"/>
<path d="M32.2402 24.2402L35.0702 27.0702" stroke="#03A74E" stroke-width="2" stroke-linecap="round" stroke-linejoin="round"/>
<path d="M18 20H22" stroke="#03A74E" stroke-width="2" stroke-linecap="round" stroke-linejoin="round"/>
<path d="M34 20H38" stroke="#03A74E" stroke-width="2" stroke-linecap="round" stroke-linejoin="round"/>
<path d="M20.9297 27.0702L23.7597 24.2402" stroke="#03A74E" stroke-width="2" stroke-linecap="round" stroke-linejoin="round"/>
<path d="M32.2402 15.7597L35.0702 12.9297" stroke="#03A74E" stroke-width="2" stroke-linecap="round" stroke-linejoin="round"/>
<circle cx="121.5" cy="66.5" r="66.5" fill="#03A74E" fill-opacity="0.2"/>
<circle cx="51.5" cy="114.5" r="3.5" fill="#D9D9D9"/>
<circle cx="122" cy="67" r="51" fill="#03A74E" fill-opacity="0.3"/>
<path d="M113.524 5.46353C113.674 5.00287 114.326 5.00287 114.476 5.46353L116.582 11.9463C116.649 12.1523 116.841 12.2918 117.057 12.2918H123.874C124.358 12.2918 124.56 12.9116 124.168 13.1963L118.653 17.2029C118.478 17.3302 118.405 17.5559 118.472 17.7619L120.578 24.2447C120.728 24.7053 120.2 25.0884 119.808 24.8037L114.294 20.7971C114.119 20.6698 113.881 20.6698 113.706 20.7971L108.192 24.8037C107.8 25.0884 107.272 24.7053 107.422 24.2447L109.528 17.7619C109.595 17.5559 109.522 17.3302 109.347 17.2029L103.832 13.1963C103.44 12.9116 103.642 12.2918 104.126 12.2918H110.943C111.159 12.2918 111.351 12.1523 111.418 11.9463L113.524 5.46353Z" fill="#03A74E"/>
<path d="M76.5245 44.4635C76.6741 44.0029 77.3259 44.0029 77.4755 44.4635L79.5819 50.9463C79.6488 51.1523 79.8408 51.2918 80.0574 51.2918H86.8738C87.3582 51.2918 87.5596 51.9116 87.1677 52.1963L81.6531 56.2029C81.4779 56.3302 81.4046 56.5559 81.4715 56.7619L83.5779 63.2447C83.7276 63.7053 83.2003 64.0884 82.8085 63.8037L77.2939 59.7971C77.1186 59.6698 76.8814 59.6698 76.7061 59.7971L71.1915 63.8037C70.7997 64.0884 70.2724 63.7053 70.4221 63.2447L72.5285 56.7619C72.5954 56.5559 72.5221 56.3302 72.3469 56.2029L66.8323 52.1963C66.4404 51.9116 66.6418 51.2918 67.1262 51.2918H73.9426C74.1592 51.2918 74.3512 51.1523 74.4181 50.9463L76.5245 44.4635Z" fill="#03A74E"/>
<path d="M123.201 71.4028V102.203H136.401C139.194 102.203 141.882 101.141 143.921 99.2326C145.959 97.3238 147.196 94.7111 147.379 91.9244L147.401 91.2028V71.4028H123.201ZM94.6008 71.4028V91.2028C94.6004 93.9955 95.6622 96.6839 97.571 98.7226C99.4797 100.761 102.092 101.998 104.879 102.181L105.601 102.203H118.801V71.4028H94.6008ZM112.201 31.8028C110.157 31.8021 108.154 32.3708 106.415 33.445C104.677 34.5192 103.272 36.0565 102.358 37.8844C101.445 39.7123 101.058 41.7586 101.242 43.7939C101.426 45.8292 102.174 47.7729 103.401 49.4072L94.6008 49.4028C93.4338 49.4028 92.3147 49.8663 91.4895 50.6915C90.6643 51.5166 90.2008 52.6358 90.2008 53.8028V62.6028C90.2008 63.7697 90.6643 64.8889 91.4895 65.714C92.3147 66.5392 93.4338 67.0028 94.6008 67.0028H118.801V49.4028H123.201V67.0028H147.401C148.568 67.0028 149.687 66.5392 150.512 65.714C151.337 64.8889 151.801 63.7697 151.801 62.6028V53.8028C151.801 52.6358 151.337 51.5166 150.512 50.6915C149.687 49.8663 148.568 49.4028 147.401 49.4028L138.601 49.4072C139.468 48.2515 140.098 46.9365 140.457 45.5371C140.815 44.1378 140.895 42.6815 140.69 41.2515C140.486 39.8215 140.002 38.4457 139.266 37.2027C138.53 35.9597 137.556 34.8739 136.401 34.0072C135.245 33.1404 133.93 32.5098 132.531 32.1513C131.131 31.7928 129.675 31.7134 128.245 31.9177C126.815 32.122 125.439 32.6059 124.196 33.3419C122.953 34.0779 121.868 35.0515 121.001 36.2072C119.979 34.8376 118.651 33.7261 117.123 32.9613C115.595 32.1966 113.909 31.7998 112.201 31.8028ZM112.201 36.2028C113.951 36.2028 115.63 36.8981 116.868 38.1358C118.105 39.3736 118.801 41.0523 118.801 42.8028V49.4028H112.201C110.45 49.4028 108.772 48.7074 107.534 47.4697C106.296 46.2319 105.601 44.5532 105.601 42.8028C105.601 41.0523 106.296 39.3736 107.534 38.1358C108.772 36.8981 110.45 36.2028 112.201 36.2028ZM129.801 36.2028C131.496 36.2036 133.125 36.8565 134.352 38.0262C135.579 39.1958 136.308 40.7926 136.39 42.4856C136.471 44.1786 135.898 45.838 134.79 47.12C133.681 48.4021 132.121 49.2084 130.434 49.372L129.801 49.4028H123.201V42.8028L123.232 42.1691C123.389 40.536 124.149 39.0202 125.364 37.9171C126.578 36.814 128.16 36.2028 129.801 36.2028Z" fill="#03A74E" fill-opacity="0.8"/>
<rect x="123.189" y="102.24" width="4.38009" height="52.9593" transform="rotate(-180 123.189 102.24)" fill="white"/>
<rect x="94.5195" y="71.5781" width="4.38009" height="52.9593" transform="rotate(-90 94.5195 71.5781)" fill="white"/>
</svg>
