<svg width="17" height="20" viewBox="0 0 17 20" fill="none" xmlns="http://www.w3.org/2000/svg">
<path d="M5.62815 15V13M8.63637 15V11M11.6446 15V9M13.6501 19H3.62267C3.09078 19 2.58068 18.7893 2.20458 18.4142C1.82848 18.0391 1.61719 17.5304 1.61719 17V3C1.61719 2.46957 1.82848 1.96086 2.20458 1.58579C2.58068 1.21071 3.09078 1 3.62267 1H9.22397C9.48989 1.00006 9.7449 1.10545 9.93291 1.293L15.3617 6.707C15.5498 6.89449 15.6555 7.1488 15.6555 7.414V17C15.6555 17.5304 15.4443 18.0391 15.0682 18.4142C14.6921 18.7893 14.182 19 13.6501 19Z" stroke="#333333" stroke-opacity="0.5" stroke-width="2" stroke-linecap="round" stroke-linejoin="round"/>
</svg>
