<svg width="16" height="16" viewBox="0 0 16 16" fill="none" xmlns="http://www.w3.org/2000/svg">
<path d="M8.00785 5.86611C7.48227 5.86611 6.99008 6.07002 6.61742 6.44268C6.24652 6.81533 6.04086 7.30752 6.04086 7.83311C6.04086 8.35869 6.24652 8.85088 6.61742 9.22353C6.99008 9.59443 7.48227 9.8001 8.00785 9.8001C8.53344 9.8001 9.02562 9.59443 9.39828 9.22353C9.76918 8.85088 9.97484 8.35869 9.97484 7.83311C9.97484 7.30752 9.76918 6.81533 9.39828 6.44268C9.21626 6.25926 8.99962 6.11384 8.76093 6.01486C8.52223 5.91588 8.26625 5.86532 8.00785 5.86611ZM15.2553 10.0058L14.1057 9.02314C14.1602 8.68916 14.1883 8.34814 14.1883 8.00889C14.1883 7.66963 14.1602 7.32686 14.1057 6.99463L15.2553 6.01201C15.3422 5.93767 15.4043 5.83865 15.4335 5.72812C15.4627 5.6176 15.4576 5.5008 15.4188 5.39326L15.403 5.34756C15.0866 4.46284 14.6125 3.64275 14.0037 2.92705L13.9721 2.89014C13.8982 2.80322 13.7997 2.74073 13.6895 2.71092C13.5794 2.68111 13.4628 2.68537 13.3551 2.72314L11.9278 3.23115C11.4004 2.79873 10.8133 2.45771 10.177 2.22041L9.90102 0.728027C9.88019 0.615602 9.82566 0.512172 9.74465 0.43148C9.66365 0.350789 9.56001 0.296654 9.4475 0.27627L9.40004 0.26748C8.48598 0.102246 7.5227 0.102246 6.60863 0.26748L6.56117 0.27627C6.44867 0.296654 6.34503 0.350789 6.26402 0.43148C6.18301 0.512172 6.12848 0.615602 6.10766 0.728027L5.82992 2.22744C5.19962 2.46664 4.61245 2.80683 4.09145 3.23467L2.65355 2.72314C2.54592 2.68507 2.42924 2.68066 2.31903 2.71049C2.20883 2.74032 2.11031 2.80297 2.03656 2.89014L2.00492 2.92705C1.39723 3.64352 0.923289 4.46339 0.605703 5.34756L0.589883 5.39326C0.510781 5.61299 0.57582 5.85908 0.753359 6.01201L1.91703 7.00518C1.86254 7.33564 1.83617 7.67315 1.83617 8.00713C1.83617 8.34463 1.86254 8.68213 1.91703 9.00908L0.756875 10.0022C0.670031 10.0766 0.607876 10.1756 0.578675 10.2861C0.549473 10.3967 0.554609 10.5135 0.593398 10.621L0.609219 10.6667C0.927383 11.5509 1.39672 12.3683 2.00844 13.0872L2.04008 13.1241C2.114 13.211 2.21253 13.2735 2.32267 13.3033C2.43281 13.3331 2.5494 13.3289 2.65707 13.2911L4.09496 12.7796C4.61879 13.2103 5.20238 13.5513 5.83344 13.7868L6.11117 15.2862C6.13199 15.3987 6.18653 15.5021 6.26754 15.5828C6.34854 15.6635 6.45218 15.7176 6.56469 15.738L6.61215 15.7468C7.5352 15.9129 8.4805 15.9129 9.40355 15.7468L9.45102 15.738C9.56352 15.7176 9.66716 15.6635 9.74817 15.5828C9.82917 15.5021 9.88371 15.3987 9.90453 15.2862L10.1805 13.7938C10.8168 13.5548 11.4039 13.2155 11.9313 12.7831L13.3586 13.2911C13.4663 13.3292 13.5829 13.3336 13.6932 13.3038C13.8034 13.2739 13.9019 13.2113 13.9756 13.1241L14.0073 13.0872C14.619 12.3647 15.0883 11.5509 15.4065 10.6667L15.4223 10.621C15.4979 10.403 15.4329 10.1587 15.2553 10.0058ZM8.00785 10.9233C6.30102 10.9233 4.91762 9.53994 4.91762 7.83311C4.91762 6.12627 6.30102 4.74287 8.00785 4.74287C9.71469 4.74287 11.0981 6.12627 11.0981 7.83311C11.0981 9.53994 9.71469 10.9233 8.00785 10.9233Z" fill="#181B19" fill-opacity="0.7"/>
</svg>
