<svg width="20" height="22" viewBox="0 0 20 22" fill="none" xmlns="http://www.w3.org/2000/svg">
<path fill-rule="evenodd" clip-rule="evenodd" d="M0 18.875C0 20.324 1.176 21.5 2.625 21.5H6.375C6.67337 21.5 6.95952 21.3815 7.1705 21.1705C7.38147 20.9595 7.5 20.6734 7.5 20.375C7.5 20.0766 7.38147 19.7905 7.1705 19.5795C6.95952 19.3685 6.67337 19.25 6.375 19.25H2.625C2.52554 19.25 2.43016 19.2105 2.35984 19.1402C2.28951 19.0698 2.25 18.9745 2.25 18.875V3.125C2.25 2.918 2.418 2.75 2.625 2.75H6.375C6.67337 2.75 6.95952 2.63147 7.1705 2.42049C7.38147 2.20952 7.5 1.92337 7.5 1.625C7.5 1.32663 7.38147 1.04048 7.1705 0.829506C6.95952 0.618526 6.67337 0.5 6.375 0.5H2.625C1.92881 0.5 1.26113 0.776562 0.768845 1.26884C0.276562 1.76113 0 2.42881 0 3.125V18.875ZM15.66 12.125H7.125C6.82663 12.125 6.54048 12.0065 6.3295 11.7955C6.11853 11.5845 6 11.2984 6 11C6 10.7016 6.11853 10.4155 6.3295 10.2045C6.54048 9.99353 6.82663 9.875 7.125 9.875H15.66L12.705 6.92C12.5945 6.81701 12.5058 6.69281 12.4443 6.55481C12.3828 6.41681 12.3498 6.26784 12.3471 6.11678C12.3444 5.96573 12.3722 5.81569 12.4288 5.6756C12.4854 5.53552 12.5696 5.40827 12.6764 5.30144C12.7833 5.19461 12.9105 5.1104 13.0506 5.05382C13.1907 4.99723 13.3407 4.96945 13.4918 4.97211C13.6428 4.97478 13.7918 5.00784 13.9298 5.06933C14.0678 5.13082 14.192 5.21947 14.295 5.33L19.17 10.205C19.3807 10.4159 19.499 10.7019 19.499 11C19.499 11.2981 19.3807 11.5841 19.17 11.795L14.295 16.67C14.192 16.7805 14.0678 16.8692 13.9298 16.9307C13.7918 16.9922 13.6428 17.0252 13.4918 17.0279C13.3407 17.0306 13.1907 17.0028 13.0506 16.9462C12.9105 16.8896 12.7833 16.8054 12.6764 16.6986C12.5696 16.5917 12.4854 16.4645 12.4288 16.3244C12.3722 16.1843 12.3444 16.0343 12.3471 15.8832C12.3498 15.7322 12.3828 15.5832 12.4443 15.4452C12.5058 15.3072 12.5945 15.183 12.705 15.08L15.66 12.125Z" fill="#181B19" fill-opacity="0.7"/>
</svg>
