<svg width="18" height="18" viewBox="0 0 18 18" fill="none" xmlns="http://www.w3.org/2000/svg">
<path d="M17.4492 0.364075C17.397 0.234036 17.2967 0.129133 17.1691 0.0711901C17.0415 0.013247 16.8965 0.0067251 16.7642 0.0529811C16.6319 0.0992371 16.5226 0.19471 16.4589 0.319537C16.3952 0.444364 16.3821 0.588936 16.4223 0.723175C17.2584 3.12618 15.5988 4.92078 14.3334 5.88198L13.8222 5.14938C13.6503 4.90368 13.266 4.69938 12.9672 4.69578L10.098 4.70838C9.74755 4.71896 9.40642 4.82407 9.11074 5.01258L0.656143 10.9409C0.459488 11.0793 0.32568 11.2899 0.284016 11.5268C0.242351 11.7636 0.296226 12.0073 0.433843 12.2045L4.27594 17.7017C4.56394 18.1112 5.02384 18.0617 5.43424 17.7755L13.8888 11.8463C14.1318 11.6744 14.4126 11.3036 14.5116 11.0201L15.4098 8.18958C15.5088 7.90698 15.4485 7.47588 15.2766 7.23018L14.9652 6.78378C16.6644 5.48148 18.4284 3.18018 17.4492 0.364075ZM13.5153 8.78627C13.3596 8.8953 13.1839 8.97257 12.9983 9.01367C12.8126 9.05476 12.6207 9.05888 12.4335 9.02578C12.2463 8.99268 12.0674 8.92302 11.9071 8.82077C11.7468 8.71852 11.6083 8.58569 11.4993 8.42987C11.2788 8.11456 11.1923 7.72462 11.259 7.34564C11.3256 6.96666 11.5399 6.62961 11.8548 6.40847C12.1017 6.23551 12.3965 6.144 12.6979 6.14675C12.9993 6.14949 13.2924 6.24635 13.536 6.42378C13.2912 6.57138 13.1229 6.65778 13.0914 6.67128C12.9799 6.72447 12.8897 6.81398 12.8357 6.92514C12.7816 7.0363 12.7669 7.16252 12.794 7.28311C12.8211 7.4037 12.8884 7.51152 12.9848 7.58889C13.0811 7.66626 13.2009 7.7086 13.3245 7.70897C13.4019 7.70897 13.4811 7.69097 13.5558 7.65587C13.7304 7.57307 13.9176 7.47498 14.1129 7.35887C14.1579 7.62893 14.1256 7.90618 14.0199 8.15871C13.9142 8.41124 13.7393 8.62878 13.5153 8.78627Z" fill="#03A74E"/>
</svg>
