<svg width="19" height="18" viewBox="0 0 19 18" fill="none" xmlns="http://www.w3.org/2000/svg">
<path d="M5.875 10C6.04076 10 6.19973 10.0658 6.31694 10.1831C6.43415 10.3003 6.5 10.4592 6.5 10.625C6.5 10.7908 6.43415 10.9497 6.31694 11.0669C6.19973 11.1842 6.04076 11.25 5.875 11.25H3.625C3.45924 11.25 3.30027 11.1842 3.18306 11.0669C3.06585 10.9497 3 10.7908 3 10.625C3 10.4592 3.06585 10.3003 3.18306 10.1831C3.30027 10.0658 3.45924 10 3.625 10H5.875ZM19 2V14.875C19 15.7038 18.6708 16.4987 18.0847 17.0847C17.4987 17.6708 16.7038 18 15.875 18H3.625C2.7962 18 2.00134 17.6708 1.41529 17.0847C0.829239 16.4987 0.5 15.7038 0.5 14.875V6.125C0.500042 5.40464 0.748871 4.7064 1.20441 4.14837C1.65995 3.59034 2.29423 3.20676 3 3.0625V2.125C3 1.56141 3.22388 1.02091 3.6224 0.622398C4.02091 0.223883 4.56141 7.60389e-09 5.125 7.60389e-09H16.875C17.417 -4.58133e-05 17.9385 0.206997 18.3329 0.578774C18.7272 0.95055 18.9646 1.45896 18.9965 2H19ZM4.25 2.125V3H16.875C17.1071 3 17.3296 2.90781 17.4937 2.74372C17.6578 2.57962 17.75 2.35706 17.75 2.125C17.75 1.89294 17.6578 1.67038 17.4937 1.50628C17.3296 1.34219 17.1071 1.25 16.875 1.25H5.125C4.6415 1.25 4.25 1.642 4.25 2.125ZM17.75 4.25H3.625C3.12772 4.25 2.65081 4.44754 2.29918 4.79917C1.94754 5.15081 1.75 5.62772 1.75 6.125V14.875C1.75 15.3723 1.94754 15.8492 2.29918 16.2008C2.65081 16.5525 3.12772 16.75 3.625 16.75H15.875C16.3723 16.75 16.8492 16.5525 17.2008 16.2008C17.5525 15.8492 17.75 15.3723 17.75 14.875V4.25Z" fill="#333333" fill-opacity="0.5"/>
</svg>
